<?xml version="1.0" standalone="no"?>
<!DOCTYPE svg PUBLIC "-//W3C//DTD SVG 20010904//EN"
 "http://www.w3.org/TR/2001/REC-SVG-20010904/DTD/svg10.dtd">
<svg version="1.0" xmlns="http://www.w3.org/2000/svg"
 width="512.000000pt" height="512.000000pt" viewBox="0 0 512.000000 512.000000"
 preserveAspectRatio="xMidYMid meet">

<g transform="translate(0.000000,512.000000) scale(0.100000,-0.100000)"
fill="#000000" stroke="none">
<path d="M2268 5109 c-81 -12 -215 -58 -396 -138 -185 -81 -256 -107 -440
-162 -188 -56 -293 -107 -362 -179 -99 -102 -159 -229 -181 -382 -21 -146 13
-293 204 -888 58 -179 135 -419 172 -533 70 -221 158 -449 204 -532 15 -27 54
-110 86 -183 32 -73 64 -137 70 -142 8 -7 42 4 107 34 201 94 423 148 668 162
267 15 496 -42 881 -221 78 -36 148 -64 155 -61 25 10 154 211 183 285 16 42
48 153 70 246 75 308 107 384 260 618 48 73 99 153 114 178 14 26 47 71 73
100 96 113 207 316 282 519 52 140 50 198 -11 355 -64 162 -90 212 -145 277
-184 214 -533 389 -1044 522 -225 59 -421 94 -681 121 -152 16 -183 17 -269 4z
m-134 -151 c-51 -61 -96 -204 -114 -355 -23 -208 80 -1080 195 -1642 14 -68
25 -136 24 -150 -1 -22 -5 -17 -26 27 -54 114 -157 532 -207 837 -49 300 -60
427 -60 705 -1 247 1 270 22 343 40 141 123 267 175 267 17 0 16 -3 -9 -32z
m-716 -245 c18 -46 70 -234 158 -568 31 -118 60 -354 79 -645 17 -256 30 -394
47 -482 14 -76 6 -92 -21 -41 -44 87 -75 259 -141 798 -49 397 -72 536 -111
677 -39 139 -68 275 -61 282 14 15 41 3 50 -21z m-338 -448 c99 -131 134 -250
235 -812 59 -328 120 -609 160 -744 14 -45 23 -84 21 -86 -7 -7 -80 175 -126
317 -53 159 -91 308 -151 590 -91 425 -144 605 -209 711 -32 53 -44 85 -35 99
11 17 63 -21 105 -75z"/>
<path d="M2085 1606 c-33 -13 -82 -33 -108 -45 -27 -11 -57 -21 -66 -21 -20 0
-51 30 -51 48 0 14 -29 16 -49 3 -21 -13 13 -75 54 -97 40 -21 59 -18 195 39
126 53 153 56 188 21 20 -21 36 -28 55 -26 36 4 34 17 -12 63 -35 36 -43 39
-92 38 -31 0 -80 -10 -114 -23z"/>
<path d="M1192 1501 c-170 -68 -473 -256 -504 -314 -23 -44 -27 -85 -9 -101
54 -49 630 -296 689 -296 23 0 36 7 48 25 15 23 15 27 0 50 -26 40 -89 80
-258 166 -86 44 -173 95 -194 113 l-38 33 45 30 c24 16 91 56 149 88 169 93
230 142 230 185 0 49 -66 57 -158 21z"/>
<path d="M3636 1514 c-48 -47 25 -105 216 -172 134 -48 188 -78 188 -106 0
-29 -74 -100 -195 -185 -119 -85 -195 -158 -195 -190 0 -25 25 -50 51 -51 34
0 418 268 512 358 26 26 47 54 47 64 0 9 -14 34 -32 53 -122 139 -526 295
-592 229z"/>
<path d="M2004 1344 c-80 -27 -133 -120 -120 -211 12 -90 83 -176 154 -189 78
-15 160 43 183 128 17 65 8 181 -17 215 -43 58 -128 82 -200 57z m104 -183 c4
-37 -12 -61 -39 -61 -37 0 -52 69 -22 102 14 16 19 17 37 4 12 -8 22 -26 24
-45z"/>
<path d="M2945 1341 c-46 -20 -92 -70 -101 -108 -21 -82 33 -232 96 -265 48
-26 134 -21 179 12 56 39 92 152 77 234 -13 70 -107 146 -181 146 -16 0 -48
-9 -70 -19z m99 -167 c21 -20 20 -26 -5 -58 -27 -34 -58 -31 -79 7 -14 27 -14
29 9 48 28 23 54 24 75 3z"/>
<path d="M2397 783 c-14 -14 -6 -34 31 -75 91 -102 179 -124 264 -68 63 42
129 115 122 135 -10 26 -34 17 -89 -33 -29 -27 -70 -57 -91 -67 -34 -16 -39
-16 -71 -1 -19 9 -58 39 -87 66 -52 49 -66 57 -79 43z"/>
<path d="M2155 526 c-38 -13 -119 -46 -180 -75 -188 -89 -201 -89 -377 0 -54
27 -101 49 -106 49 -13 0 16 -172 40 -244 57 -173 191 -251 428 -250 184 1
332 55 435 158 140 140 133 281 -18 356 -74 37 -125 38 -222 6z"/>
<path d="M2779 543 c-48 -7 -132 -66 -156 -108 -76 -135 60 -323 291 -400 148
-50 345 -43 473 17 70 33 146 112 171 180 28 74 54 258 37 258 -7 0 -53 -20
-103 -44 -123 -61 -155 -69 -217 -52 -28 7 -115 40 -195 74 -184 77 -224 87
-301 75z"/>
</g>
</svg>
